<?xml version="1.0" encoding="utf-8"?>
<!-- Generator: Adobe Illustrator 26.4.1, SVG Export Plug-In . SVG Version: 6.00 Build 0)  -->
<svg version="1.1" id="Layer_1" xmlns="http://www.w3.org/2000/svg" xmlns:xlink="http://www.w3.org/1999/xlink" x="0px" y="0px"
	 viewBox="0 0 187.5 57.2" style="enable-background:new 0 0 187.5 57.2;" xml:space="preserve">
<style type="text/css">
	.st0{fill:#664DE5;}
</style>
<g>
	<g>
		<path class="st0" d="M27.7,19.6C23.9,2.5,5.9,3.5,5.9,3.5s0,21.8,0,29.1c0,2.7,1.9,18.4,23.7,18.4c4.7,0,8.4-0.7,11.5-2
			C29.7,44.4,30.9,34,27.7,19.6z"/>
		<path class="st0" d="M53.4,31c0-3.8,0-5.2,0-7c0-4.4-4-7.3-7.6-7.3c-5.9,0-11.4,1-11.4,9.5c0,4.4,0.5,17.6,10.9,20.4
			C51,41.9,53.4,35.3,53.4,31z"/>
	</g>
	<g>
		<path d="M72.6,45.6V12.1h21.8v5.1H78.6v9.1h14.6v5.1H78.6v9.1h15.8v5.1H72.6z"/>
		<path d="M109.6,46c-2,0-3.7-0.5-5.3-1.5c-1.6-1-2.8-2.5-3.7-4.4s-1.4-4.3-1.4-7c0-2.8,0.5-5.1,1.4-7.1c0.9-1.9,2.2-3.4,3.7-4.4
			c1.6-1,3.3-1.5,5.2-1.5c1.5,0,2.7,0.2,3.6,0.7c0.9,0.5,1.7,1.1,2.3,1.8c0.6,0.7,1,1.3,1.3,2h0.2V12.1h5.9v33.5h-5.8v-4h-0.4
			c-0.3,0.6-0.7,1.3-1.3,1.9c-0.6,0.7-1.3,1.3-2.3,1.7C112.2,45.8,111,46,109.6,46z M111.2,41.1c1.3,0,2.3-0.3,3.2-1s1.6-1.6,2-2.9
			c0.5-1.2,0.7-2.6,0.7-4.3c0-1.6-0.2-3-0.7-4.2c-0.5-1.2-1.1-2.1-2-2.8c-0.9-0.7-2-1-3.2-1c-1.3,0-2.4,0.3-3.3,1s-1.5,1.6-2,2.8
			c-0.4,1.2-0.7,2.6-0.7,4.2c0,1.6,0.2,3,0.7,4.2c0.5,1.2,1.1,2.2,2,2.9C108.9,40.8,109.9,41.1,111.2,41.1z"/>
		<path d="M140.4,46.1c-2.5,0-4.7-0.5-6.5-1.6c-1.8-1.1-3.2-2.5-4.2-4.5c-1-1.9-1.5-4.2-1.5-6.8c0-2.6,0.5-4.9,1.5-6.8
			s2.4-3.5,4.1-4.6c1.8-1.1,3.9-1.6,6.3-1.6c1.5,0,3,0.2,4.4,0.7c1.4,0.5,2.6,1.3,3.7,2.3s1.9,2.4,2.5,3.9c0.6,1.6,0.9,3.5,0.9,5.7
			v1.8H131v-4h14.9c0-1.1-0.3-2.1-0.7-3c-0.5-0.9-1.1-1.6-2-2.1s-1.8-0.8-3-0.8c-1.2,0-2.3,0.3-3.2,0.9c-0.9,0.6-1.6,1.3-2.1,2.3
			c-0.5,0.9-0.8,2-0.8,3.1v3.5c0,1.5,0.3,2.7,0.8,3.8c0.5,1,1.3,1.8,2.2,2.4c1,0.6,2.1,0.8,3.4,0.8c0.9,0,1.6-0.1,2.3-0.4
			s1.3-0.6,1.8-1.1s0.9-1.1,1.2-1.8l5.5,0.6c-0.3,1.5-1,2.7-2,3.8c-1,1.1-2.2,1.9-3.7,2.5C144.1,45.8,142.4,46.1,140.4,46.1z"/>
		<path d="M162.5,30.9v14.7h-5.9V20.5h5.7v4.3h0.3c0.6-1.4,1.5-2.5,2.8-3.4s2.8-1.2,4.7-1.2c1.7,0,3.2,0.4,4.5,1.1
			c1.3,0.7,2.3,1.8,3,3.2c0.7,1.4,1.1,3.1,1.1,5.1v16h-5.9V30.5c0-1.7-0.4-3-1.3-3.9c-0.9-0.9-2.1-1.4-3.6-1.4c-1,0-2,0.2-2.8,0.7
			s-1.4,1.1-1.9,2C162.7,28.6,162.5,29.6,162.5,30.9z"/>
	</g>
</g>
</svg>
