<?xml version="1.0" encoding="utf-8"?>
<!-- Generator: Adobe Illustrator 26.4.1, SVG Export Plug-In . SVG Version: 6.00 Build 0)  -->
<svg version="1.1" id="Layer_1" xmlns="http://www.w3.org/2000/svg" xmlns:xlink="http://www.w3.org/1999/xlink" x="0px" y="0px"
	 viewBox="0 0 100 100" style="enable-background:new 0 0 100 100;" xml:space="preserve">
<style type="text/css">
	.st0{fill:#664DE5;}
</style>
<g>
	<path class="st0" d="M74.35,59.29c-0.08,0-0.15,0.02-0.23,0.02c1.68,3.51,2.64,7.43,2.64,11.58v16.32h13.78V75.48
		C90.54,66.54,83.29,59.29,74.35,59.29z"/>
	<path class="st0" d="M86.22,45.27c0-6.56-5.31-11.87-11.87-11.87c-1.51,0-2.95,0.31-4.28,0.83c-1.2,4.56-3.93,8.49-7.57,11.29
		c-0.43,0.33-0.85,0.67-1.3,0.97c0.51,0.24,0.99,0.56,1.48,0.83c4.17,2.29,7.67,5.62,10.13,9.67c0.51,0.07,1.01,0.15,1.53,0.15
		C80.91,57.14,86.22,51.82,86.22,45.27z"/>
	<path class="st0" d="M8.98,75.48v11.74h13.78V70.9c0-4.15,0.96-8.07,2.64-11.58c-0.08,0-0.15-0.02-0.23-0.02
		C16.23,59.29,8.98,66.54,8.98,75.48z"/>
	<path class="st0" d="M36.83,47.31c0.5-0.27,0.97-0.59,1.48-0.83c-0.45-0.3-0.87-0.64-1.3-0.97c-3.64-2.8-6.37-6.73-7.57-11.29
		c-1.33-0.52-2.77-0.83-4.28-0.83c-6.56,0-11.87,5.31-11.87,11.87s5.31,11.87,11.87,11.87c0.52,0,1.02-0.09,1.53-0.15
		C29.16,52.93,32.66,49.6,36.83,47.31z"/>
	<path class="st0" d="M49.76,48.4c-12.43,0-22.5,10.07-22.5,22.5v16.32h45V70.9C72.26,58.47,62.18,48.4,49.76,48.4z"/>
	<circle class="st0" cx="49.76" cy="28.9" r="16.5"/>
</g>
</svg>
